<svg width="67" height="68" viewBox="0 0 67 68" fill="none" xmlns="http://www.w3.org/2000/svg">
<circle opacity="0.15" cx="33.4498" cy="34.0142" r="33.3209" fill="#4A3AFF"/>
<g filter="url(#filter0_d_901_14026)">
<rect x="17.3711" y="19.4873" width="32.1799" height="29.3527" rx="1" fill="white"/>
</g>
<rect x="16.1469" y="19.4873" width="34.0457" height="28.1681" fill="white"/>
<rect x="21.3148" y="27.9443" width="23.7094" height="5.66188" rx="0.680278" fill="#4A3AFF"/>
<rect x="21.3148" y="36.3774" width="10.8407" height="7.31969" rx="0.680278" fill="#4A3AFF"/>
<rect x="34.1839" y="36.3774" width="10.8407" height="2.30835" rx="0.680278" fill="#4A3AFF"/>
<rect x="34.1839" y="41.3892" width="10.8407" height="2.30835" rx="0.680278" fill="#4A3AFF"/>
<path d="M14.7182 45.3312C14.7182 46.5732 15.2116 47.7643 16.0898 48.6426C16.968 49.5208 18.1591 50.0142 19.4011 50.0142H47.4987C48.7407 50.0142 49.9318 49.5208 50.81 48.6426C51.6882 47.7643 52.1816 46.5732 52.1816 45.3312V22.6971C52.1816 21.4551 51.6882 20.264 50.81 19.3858C49.9318 18.5075 48.7407 18.0142 47.4987 18.0142H19.4011C18.1591 18.0142 16.968 18.5075 16.0898 19.3858C15.2116 20.264 14.7182 21.4551 14.7182 22.6971V45.3312ZM37.3523 21.9166C37.3451 22.1938 37.2619 22.4638 37.112 22.6971C36.9817 22.9333 36.7905 23.1303 36.5582 23.2675C36.326 23.4047 36.0611 23.4771 35.7914 23.4771C35.5216 23.4771 35.2568 23.4047 35.0245 23.2675C34.7922 23.1303 34.601 22.9333 34.4708 22.6971C34.3208 22.4638 34.2377 22.1938 34.2304 21.9166C34.2374 21.6393 34.3206 21.3693 34.4708 21.1361C34.601 20.8999 34.7922 20.7029 35.0245 20.5657C35.2568 20.4285 35.5216 20.3561 35.7914 20.3561C36.0611 20.3561 36.326 20.4285 36.5582 20.5657C36.7905 20.7029 36.9817 20.8999 37.112 21.1361C37.2621 21.3693 37.3453 21.6393 37.3523 21.9166ZM42.8158 21.9166C42.8085 22.1938 42.7253 22.4638 42.5754 22.6971C42.4452 22.9333 42.2539 23.1303 42.0217 23.2675C41.7894 23.4047 41.5246 23.4771 41.2548 23.4771C40.985 23.4771 40.7202 23.4047 40.4879 23.2675C40.2556 23.1303 40.0644 22.9333 39.9342 22.6971C39.7842 22.4638 39.7011 22.1938 39.6938 21.9166C39.7009 21.6393 39.784 21.3693 39.9342 21.1361C40.0644 20.8999 40.2556 20.7029 40.4879 20.5657C40.7202 20.4285 40.985 20.3561 41.2548 20.3561C41.5246 20.3561 41.7894 20.4285 42.0217 20.5657C42.2539 20.7029 42.4452 20.8999 42.5754 21.1361C42.7255 21.3693 42.8087 21.6393 42.8158 21.9166ZM48.2792 21.9166C48.2719 22.1938 48.1887 22.4638 48.0388 22.6971C47.9086 22.9333 47.7173 23.1303 47.4851 23.2675C47.2528 23.4047 46.988 23.4771 46.7182 23.4771C46.4484 23.4771 46.1836 23.4047 45.9513 23.2675C45.7191 23.1303 45.5278 22.9333 45.3976 22.6971C45.2477 22.4638 45.1645 22.1938 45.1572 21.9166C45.1643 21.6393 45.2474 21.3693 45.3976 21.1361C45.5299 20.9016 45.7216 20.706 45.9534 20.569C46.1852 20.432 46.449 20.3584 46.7182 20.3556C47.0181 20.357 47.3113 20.4447 47.5626 20.6083C47.814 20.7719 48.0129 21.0045 48.1356 21.2782C48.2286 21.4782 48.2776 21.696 48.2792 21.9166ZM17.8402 26.2077C17.8402 26.1042 17.8813 26.005 17.9545 25.9318C18.0276 25.8586 18.1269 25.8175 18.2304 25.8175H48.6694C48.7729 25.8175 48.8722 25.8586 48.9454 25.9318C49.0185 26.005 49.0597 26.1042 49.0597 26.2077V45.3297C49.0597 45.7437 48.8952 46.1407 48.6025 46.4335C48.3097 46.7262 47.9127 46.8906 47.4987 46.8906H19.4011C18.9871 46.8906 18.5901 46.7262 18.2974 46.4335C18.0046 46.1407 17.8402 45.7437 17.8402 45.3297V26.2077Z" fill="#4A3AFF"/>
<defs>
<filter id="filter0_d_901_14026" x="7.37109" y="9.4873" width="52.1799" height="49.3525" filterUnits="userSpaceOnUse" color-interpolation-filters="sRGB">
<feFlood flood-opacity="0" result="BackgroundImageFix"/>
<feColorMatrix in="SourceAlpha" type="matrix" values="0 0 0 0 0 0 0 0 0 0 0 0 0 0 0 0 0 0 127 0" result="hardAlpha"/>
<feOffset/>
<feGaussianBlur stdDeviation="5"/>
<feColorMatrix type="matrix" values="0 0 0 0 0.290196 0 0 0 0 0.227451 0 0 0 0 1 0 0 0 0.5 0"/>
<feBlend mode="normal" in2="BackgroundImageFix" result="effect1_dropShadow_901_14026"/>
<feBlend mode="normal" in="SourceGraphic" in2="effect1_dropShadow_901_14026" result="shape"/>
</filter>
</defs>
</svg>
