<svg width="68" height="68" viewBox="0 0 68 68" fill="none" xmlns="http://www.w3.org/2000/svg">
<circle opacity="0.15" cx="34.1314" cy="33.9225" r="33.3209" fill="#4A3AFF"/>
<g filter="url(#filter0_d_2203_6)">
<rect x="17.25" y="20.6548" width="33.6238" height="26.9089" rx="1" fill="white"/>
</g>
<rect x="16.8281" y="19.3955" width="34.0457" height="28.1681" fill="white"/>
<path d="M15.3984 45.2394C15.3984 46.4814 15.8918 47.6725 16.77 48.5508C17.6483 49.429 18.8394 49.9224 20.0814 49.9224H48.1789C49.4209 49.9224 50.612 49.429 51.4903 48.5508C52.3685 47.6725 52.8619 46.4814 52.8619 45.2394V22.6053C52.8619 21.3633 52.3685 20.1722 51.4903 19.294C50.612 18.4157 49.4209 17.9224 48.1789 17.9224H20.0814C18.8394 17.9224 17.6483 18.4157 16.77 19.294C15.8918 20.1722 15.3984 21.3633 15.3984 22.6053V45.2394ZM38.0326 21.8248C38.0253 22.102 37.9421 22.372 37.7922 22.6053C37.662 22.8415 37.4708 23.0385 37.2385 23.1757C37.0062 23.3129 36.7414 23.3853 36.4716 23.3853C36.2018 23.3853 35.937 23.3129 35.7047 23.1757C35.4725 23.0385 35.2812 22.8415 35.151 22.6053C35.0011 22.372 34.9179 22.102 34.9106 21.8248C34.9177 21.5475 35.0008 21.2775 35.151 21.0443C35.2812 20.8081 35.4725 20.6111 35.7047 20.4739C35.937 20.3367 36.2018 20.2643 36.4716 20.2643C36.7414 20.2643 37.0062 20.3367 37.2385 20.4739C37.4708 20.6111 37.662 20.8081 37.7922 21.0443C37.9424 21.2775 38.0255 21.5475 38.0326 21.8248ZM43.496 21.8248C43.4887 22.102 43.4056 22.372 43.2556 22.6053C43.1254 22.8415 42.9342 23.0385 42.7019 23.1757C42.4696 23.3129 42.2048 23.3853 41.935 23.3853C41.6653 23.3853 41.4004 23.3129 41.1681 23.1757C40.9359 23.0385 40.7447 22.8415 40.6144 22.6053C40.4645 22.372 40.3813 22.102 40.374 21.8248C40.3811 21.5475 40.4643 21.2775 40.6144 21.0443C40.7447 20.8081 40.9359 20.6111 41.1681 20.4739C41.4004 20.3367 41.6653 20.2643 41.935 20.2643C42.2048 20.2643 42.4696 20.3367 42.7019 20.4739C42.9342 20.6111 43.1254 20.8081 43.2556 21.0443C43.4058 21.2775 43.4889 21.5475 43.496 21.8248ZM48.9594 21.8248C48.9521 22.102 48.869 22.372 48.719 22.6053C48.5888 22.8415 48.3976 23.0385 48.1653 23.1757C47.933 23.3129 47.6682 23.3853 47.3984 23.3853C47.1287 23.3853 46.8638 23.3129 46.6316 23.1757C46.3993 23.0385 46.2081 22.8415 46.0779 22.6053C45.9279 22.372 45.8448 22.102 45.8375 21.8248C45.8445 21.5475 45.9277 21.2775 46.0779 21.0443C46.2101 20.8098 46.4018 20.6142 46.6336 20.4772C46.8654 20.3402 47.1292 20.2666 47.3984 20.2638C47.6983 20.2652 47.9915 20.3529 48.2429 20.5165C48.4942 20.6801 48.6931 20.9127 48.8158 21.1864C48.9088 21.3864 48.9578 21.6042 48.9594 21.8248ZM18.5204 26.1159C18.5204 26.0124 18.5615 25.9132 18.6347 25.84C18.7079 25.7668 18.8071 25.7257 18.9106 25.7257H49.3497C49.4532 25.7257 49.5524 25.7668 49.6256 25.84C49.6988 25.9132 49.7399 26.0124 49.7399 26.1159V45.2379C49.7399 45.6519 49.5754 46.0489 49.2827 46.3417C48.99 46.6344 48.5929 46.7989 48.1789 46.7989H20.0814C19.6674 46.7989 19.2703 46.6344 18.9776 46.3417C18.6848 46.0489 18.5204 45.6519 18.5204 45.2379V26.1159Z" fill="#4A3AFF"/>
<path d="M26.0013 40.88C26.294 41.1726 26.691 41.337 27.1049 41.337C27.5188 41.337 27.9158 41.1726 28.2085 40.88L32.111 36.9775C32.4036 36.6848 32.568 36.2878 32.568 35.8739C32.568 35.46 32.4036 35.063 32.111 34.7703L28.2085 30.8679C27.9141 30.5835 27.5198 30.4262 27.1105 30.4297C26.7013 30.4333 26.3097 30.5975 26.0203 30.8869C25.7309 31.1763 25.5667 31.5678 25.5632 31.9771C25.5596 32.3864 25.717 32.7807 26.0013 33.0751L28.5239 35.5976C28.5602 35.6339 28.589 35.6769 28.6087 35.7244C28.6284 35.7718 28.6385 35.8226 28.6385 35.8739C28.6385 35.9253 28.6284 35.9761 28.6087 36.0235C28.589 36.0709 28.5602 36.114 28.5239 36.1502L26.0013 38.6727C25.7087 38.9655 25.5443 39.3624 25.5443 39.7764C25.5443 40.1903 25.7087 40.5872 26.0013 40.88Z" fill="#4A3AFF"/>
<path d="M35.6912 41.3373H41.9351C42.3491 41.3373 42.7461 41.1728 43.0389 40.8801C43.3316 40.5873 43.4961 40.1903 43.4961 39.7763C43.4961 39.3623 43.3316 38.9653 43.0389 38.6725C42.7461 38.3798 42.3491 38.2153 41.9351 38.2153H35.6912C35.2772 38.2153 34.8802 38.3798 34.5874 38.6725C34.2947 38.9653 34.1302 39.3623 34.1302 39.7763C34.1302 40.1903 34.2947 40.5873 34.5874 40.8801C34.8802 41.1728 35.2772 41.3373 35.6912 41.3373Z" fill="#4A3AFF"/>
<defs>
<filter id="filter0_d_2203_6" x="7.25" y="10.6548" width="53.6238" height="46.9087" filterUnits="userSpaceOnUse" color-interpolation-filters="sRGB">
<feFlood flood-opacity="0" result="BackgroundImageFix"/>
<feColorMatrix in="SourceAlpha" type="matrix" values="0 0 0 0 0 0 0 0 0 0 0 0 0 0 0 0 0 0 127 0" result="hardAlpha"/>
<feOffset/>
<feGaussianBlur stdDeviation="5"/>
<feColorMatrix type="matrix" values="0 0 0 0 0.290196 0 0 0 0 0.227451 0 0 0 0 1 0 0 0 0.5 0"/>
<feBlend mode="normal" in2="BackgroundImageFix" result="effect1_dropShadow_2203_6"/>
<feBlend mode="normal" in="SourceGraphic" in2="effect1_dropShadow_2203_6" result="shape"/>
</filter>
</defs>
</svg>
