<svg width="68" height="68" viewBox="0 0 68 68" fill="none" xmlns="http://www.w3.org/2000/svg">
<circle opacity="0.15" cx="34.1314" cy="34.2262" r="33.3209" fill="#4A3AFF"/>
<g filter="url(#filter0_d_2203_5)">
<path d="M19.2891 30.055L43.2529 23.2773V44.5787L19.7728 37.1354L19.2891 30.055Z" fill="#E4E2FF"/>
</g>
<path d="M50.7257 32.6414C50.7194 31.5442 50.3752 30.4755 49.7399 29.5809C49.1047 28.6863 48.2092 28.0091 47.1753 27.6415C46.9736 27.5686 46.7573 27.5454 46.5446 27.5738C46.332 27.6022 46.1294 27.6815 45.9539 27.8048C45.7784 27.9282 45.6353 28.092 45.5365 28.2825C45.4378 28.4729 45.3864 28.6843 45.3868 28.8988L45.4055 39.1069C45.406 39.3209 45.458 39.5317 45.5571 39.7214C45.6561 39.9112 45.7994 40.0743 45.9748 40.1971C46.1501 40.3198 46.3525 40.3986 46.5646 40.4268C46.7768 40.4549 46.9927 40.4316 47.194 40.3588C48.2299 39.9862 49.1253 39.3024 49.7576 38.4011C50.3898 37.4998 50.7279 36.4251 50.7257 35.3242V32.6414Z" fill="#4A3AFF"/>
<path d="M44.2618 21.2444C44.2618 20.9144 44.1307 20.5978 43.8974 20.3645C43.664 20.1311 43.3475 20 43.0175 20C42.6874 20 42.3709 20.1311 42.1375 20.3645C41.9042 20.5978 41.7731 20.9144 41.7731 21.2444V22.2075L19.1824 29.5009C19.0572 29.5414 18.9481 29.6206 18.8708 29.727C18.7934 29.8335 18.7518 29.9617 18.7519 30.0932V37.5061C18.7519 37.6385 18.7941 37.7674 18.8724 37.8742C18.9507 37.9809 19.0611 38.0599 19.1874 38.0996L20.8051 38.6074C20.9314 38.6471 21.0418 38.7261 21.1201 38.8328C21.1984 38.9396 21.2406 39.0685 21.2406 39.2009V42.4251C21.2489 43.9055 21.8423 45.3224 22.8913 46.3669C23.9404 47.4113 25.36 47.9984 26.8404 48H26.8665C28.3503 47.9914 29.7702 47.395 30.8149 46.3414C31.8597 45.2877 32.4441 43.8629 32.4401 42.3791V42.2547L41.7731 45.179V46.1322C41.7731 46.4622 41.9042 46.7787 42.1375 47.0121C42.3709 47.2455 42.6874 47.3766 43.0175 47.3766C43.3475 47.3766 43.664 47.2455 43.8974 47.0121C44.1307 46.7787 44.2618 46.4622 44.2618 46.1322V21.2444ZM29.9514 42.3853C29.9533 42.7939 29.8748 43.1988 29.7203 43.577C29.5658 43.9552 29.3382 44.2992 29.0508 44.5895C28.7633 44.8798 28.4214 45.1106 28.0447 45.2687C27.668 45.4269 27.2639 45.5093 26.8553 45.5112H26.8404C26.0187 45.5112 25.2305 45.1862 24.6476 44.6071C24.0648 44.028 23.7347 43.2418 23.7294 42.4202V40.3706C23.7294 40.273 23.7524 40.1766 23.7966 40.0895C23.8407 40.0023 23.9047 39.9268 23.9835 39.869C24.0623 39.8112 24.1535 39.7728 24.2499 39.7568C24.3463 39.7408 24.4451 39.7478 24.5383 39.7771L29.5158 41.3375C29.6421 41.3773 29.7525 41.4562 29.8308 41.563C29.9091 41.6697 29.9514 41.7987 29.9514 41.9311V42.3853Z" fill="#4A3AFF"/>
<path d="M18.7508 29.5187C18.7508 29.1845 18.6059 28.8641 18.348 28.6278C18.09 28.3915 17.7402 28.2588 17.3754 28.2588C17.0106 28.2588 16.6608 28.3915 16.4028 28.6278C16.1449 28.8641 16 29.1845 16 29.5187L16.0069 38.3378C16.0069 38.5033 16.0425 38.6671 16.1116 38.82C16.1807 38.9728 16.282 39.1117 16.4097 39.2287C16.5374 39.3457 16.6891 39.4385 16.8559 39.5018C17.0228 39.5651 17.2017 39.5977 17.3823 39.5977H17.3754C17.7345 39.5978 18.0795 39.4692 18.3365 39.2394C18.5935 39.0097 18.7422 38.6969 18.7508 38.3681V29.5187Z" fill="white"/>
<defs>
<filter id="filter0_d_2203_5" x="4.28906" y="8.27734" width="53.9638" height="51.3013" filterUnits="userSpaceOnUse" color-interpolation-filters="sRGB">
<feFlood flood-opacity="0" result="BackgroundImageFix"/>
<feColorMatrix in="SourceAlpha" type="matrix" values="0 0 0 0 0 0 0 0 0 0 0 0 0 0 0 0 0 0 127 0" result="hardAlpha"/>
<feOffset/>
<feGaussianBlur stdDeviation="7.5"/>
<feColorMatrix type="matrix" values="0 0 0 0 0.290196 0 0 0 0 0.227451 0 0 0 0 1 0 0 0 0.6 0"/>
<feBlend mode="normal" in2="BackgroundImageFix" result="effect1_dropShadow_2203_5"/>
<feBlend mode="normal" in="SourceGraphic" in2="effect1_dropShadow_2203_5" result="shape"/>
</filter>
</defs>
</svg>
