<svg width="68" height="68" viewBox="0 0 68 68" fill="none" xmlns="http://www.w3.org/2000/svg">
<circle opacity="0.15" cx="33.9498" cy="34.2262" r="33.3209" fill="#4A3AFF"/>
<g filter="url(#filter0_d_2203_3)">
<rect x="21.9746" y="21.2275" width="25.0655" height="26.7152" rx="12.5328" fill="white"/>
</g>
<circle cx="34.0665" cy="33.9823" r="8.78843" fill="white"/>
<path fill-rule="evenodd" clip-rule="evenodd" d="M51.3246 37.4935C52.0642 37.8864 52.6348 38.5067 53.0363 39.1271C53.8182 40.4092 53.7548 41.9807 52.994 43.3662L51.5148 45.8476C50.7329 47.171 49.2747 47.9981 47.7743 47.9981C47.0347 47.9981 46.2105 47.7914 45.5343 47.3778C44.9848 47.0263 44.3509 46.9022 43.6746 46.9022C41.5825 46.9022 39.8285 48.6185 39.7651 50.6657C39.7651 53.0437 37.8209 54.9048 35.3907 54.9048H32.5167C30.0653 54.9048 28.1211 53.0437 28.1211 50.6657C28.0788 48.6185 26.3248 46.9022 24.2327 46.9022C23.5353 46.9022 22.9014 47.0263 22.3731 47.3778C21.6968 47.7914 20.8515 47.9981 20.133 47.9981C18.6115 47.9981 17.1533 47.171 16.3714 45.8476L14.9133 43.3662C14.1314 42.0221 14.0891 40.4092 14.871 39.1271C15.2091 38.5067 15.8431 37.8864 16.5616 37.4935C17.1533 37.204 17.5337 36.7284 17.893 36.1701C18.9496 34.3917 18.3156 32.0551 16.5194 31.0005C14.4272 29.8218 13.751 27.1956 14.9556 25.1485L16.3714 22.7084C17.5971 20.6612 20.2175 19.9375 22.3308 21.1368C24.1693 22.1294 26.5573 21.4677 27.635 19.71C27.9732 19.131 28.1634 18.5107 28.1211 17.8903C28.0788 17.0839 28.3113 16.3188 28.7128 15.6984C29.4947 14.4163 30.9106 13.5892 32.4533 13.5479H35.4329C36.9967 13.5479 38.4126 14.4163 39.1945 15.6984C39.5749 16.3188 39.8285 17.0839 39.7651 17.8903C39.7228 18.5107 39.913 19.131 40.2512 19.71C41.3289 21.4677 43.7169 22.1294 45.5765 21.1368C47.6687 19.9375 50.3102 20.6612 51.5148 22.7084L52.9306 25.1485C54.1563 27.1956 53.4801 29.8218 51.3668 31.0005C49.5706 32.0551 48.9366 34.3917 50.0144 36.1701C50.3525 36.7284 50.7329 37.204 51.3246 37.4935ZM27.974 34.2465C27.974 37.493 30.6578 40.0778 33.9756 40.0778C37.2934 40.0778 39.9138 37.493 39.9138 34.2465C39.9138 31 37.2934 28.3945 33.9756 28.3945C30.6578 28.3945 27.974 31 27.974 34.2465Z" fill="#4A3AFF"/>
<defs>
<filter id="filter0_d_2203_3" x="6.97461" y="6.22754" width="55.0656" height="56.7153" filterUnits="userSpaceOnUse" color-interpolation-filters="sRGB">
<feFlood flood-opacity="0" result="BackgroundImageFix"/>
<feColorMatrix in="SourceAlpha" type="matrix" values="0 0 0 0 0 0 0 0 0 0 0 0 0 0 0 0 0 0 127 0" result="hardAlpha"/>
<feOffset/>
<feGaussianBlur stdDeviation="7.5"/>
<feColorMatrix type="matrix" values="0 0 0 0 0.290196 0 0 0 0 0.227451 0 0 0 0 1 0 0 0 1 0"/>
<feBlend mode="normal" in2="BackgroundImageFix" result="effect1_dropShadow_2203_3"/>
<feBlend mode="normal" in="SourceGraphic" in2="effect1_dropShadow_2203_3" result="shape"/>
</filter>
</defs>
</svg>
